<mxfile host="app.diagrams.net" agent="Mozilla/5.0 (Windows NT 10.0; Win64; x64) AppleWebKit/537.36 (KHTML, like Gecko) Chrome/133.0.0.0 Safari/537.36 Edg/133.0.0.0" version="26.0.16">
  <diagram name="Страница — 1" id="we_xBGtF2c1DNRXYKlCE">
    <mxGraphModel dx="2273" dy="1958" grid="1" gridSize="10" guides="1" tooltips="1" connect="1" arrows="1" fold="1" page="1" pageScale="1" pageWidth="827" pageHeight="1169" math="0" shadow="0">
      <root>
        <mxCell id="0" />
        <mxCell id="1" parent="0" />
        <mxCell id="9_J29xfHkVQ5TLsSPcRU-10" value="Text" style="text;html=1;align=center;verticalAlign=middle;resizable=0;points=[];autosize=1;strokeColor=none;fillColor=none;" vertex="1" parent="1">
          <mxGeometry x="395" y="-195" width="50" height="30" as="geometry" />
        </mxCell>
        <mxCell id="9_J29xfHkVQ5TLsSPcRU-37" style="edgeStyle=orthogonalEdgeStyle;rounded=0;orthogonalLoop=1;jettySize=auto;html=1;exitX=0;exitY=0;exitDx=0;exitDy=0;entryX=0;entryY=1;entryDx=0;entryDy=0;" edge="1" parent="1" source="9_J29xfHkVQ5TLsSPcRU-21" target="9_J29xfHkVQ5TLsSPcRU-26">
          <mxGeometry relative="1" as="geometry" />
        </mxCell>
        <mxCell id="9_J29xfHkVQ5TLsSPcRU-21" value="" style="swimlane;startSize=0;" vertex="1" parent="1">
          <mxGeometry y="-70" width="970" height="70" as="geometry" />
        </mxCell>
        <mxCell id="9_J29xfHkVQ5TLsSPcRU-25" value="" style="swimlane;startSize=0;" vertex="1" parent="1">
          <mxGeometry x="1040" y="-460" width="110" height="460" as="geometry" />
        </mxCell>
        <mxCell id="9_J29xfHkVQ5TLsSPcRU-26" value="" style="swimlane;startSize=0;" vertex="1" parent="1">
          <mxGeometry x="10" y="-300" width="930" height="110" as="geometry" />
        </mxCell>
        <mxCell id="9_J29xfHkVQ5TLsSPcRU-29" value="" style="swimlane;startSize=0;" vertex="1" parent="1">
          <mxGeometry x="10" y="-490" width="390" height="120" as="geometry" />
        </mxCell>
        <mxCell id="9_J29xfHkVQ5TLsSPcRU-34" style="edgeStyle=orthogonalEdgeStyle;rounded=0;orthogonalLoop=1;jettySize=auto;html=1;" edge="1" parent="1">
          <mxGeometry relative="1" as="geometry">
            <mxPoint x="1760" as="sourcePoint" />
            <mxPoint x="1760" y="20" as="targetPoint" />
          </mxGeometry>
        </mxCell>
        <mxCell id="9_J29xfHkVQ5TLsSPcRU-35" value="" style="swimlane;startSize=0;" vertex="1" parent="1">
          <mxGeometry x="580" y="-500" width="200" height="130" as="geometry" />
        </mxCell>
        <mxCell id="9_J29xfHkVQ5TLsSPcRU-36" value="" style="swimlane;startSize=0;" vertex="1" parent="1">
          <mxGeometry x="400" y="-490" width="180" height="30" as="geometry" />
        </mxCell>
        <mxCell id="9_J29xfHkVQ5TLsSPcRU-38" value="" style="swimlane;startSize=0;" vertex="1" parent="1">
          <mxGeometry x="870" y="-600" width="280" height="140" as="geometry" />
        </mxCell>
        <mxCell id="9_J29xfHkVQ5TLsSPcRU-39" value="" style="swimlane;startSize=0;" vertex="1" parent="1">
          <mxGeometry x="420" y="-800" width="450" height="120" as="geometry" />
        </mxCell>
        <mxCell id="9_J29xfHkVQ5TLsSPcRU-40" value="" style="endArrow=none;html=1;rounded=0;" edge="1" parent="1">
          <mxGeometry width="50" height="50" relative="1" as="geometry">
            <mxPoint x="420" y="-680" as="sourcePoint" />
            <mxPoint x="420" y="-680" as="targetPoint" />
            <Array as="points">
              <mxPoint x="420" y="-490" />
            </Array>
          </mxGeometry>
        </mxCell>
        <mxCell id="9_J29xfHkVQ5TLsSPcRU-41" value="" style="swimlane;startSize=0;" vertex="1" parent="1">
          <mxGeometry x="950" y="-800" width="200" height="200" as="geometry" />
        </mxCell>
        <mxCell id="9_J29xfHkVQ5TLsSPcRU-45" value="" style="endArrow=none;html=1;rounded=0;" edge="1" parent="1">
          <mxGeometry width="50" height="50" relative="1" as="geometry">
            <mxPoint x="420" y="-880" as="sourcePoint" />
            <mxPoint x="1160" y="-880" as="targetPoint" />
          </mxGeometry>
        </mxCell>
        <mxCell id="9_J29xfHkVQ5TLsSPcRU-46" value="" style="endArrow=none;html=1;rounded=0;" edge="1" parent="1">
          <mxGeometry width="50" height="50" relative="1" as="geometry">
            <mxPoint x="330" y="-880" as="sourcePoint" />
            <mxPoint x="420" y="-880" as="targetPoint" />
            <Array as="points">
              <mxPoint x="180" y="-880" />
            </Array>
          </mxGeometry>
        </mxCell>
        <mxCell id="9_J29xfHkVQ5TLsSPcRU-47" value="" style="endArrow=none;html=1;rounded=0;" edge="1" parent="1">
          <mxGeometry width="50" height="50" relative="1" as="geometry">
            <mxPoint x="250" y="-800" as="sourcePoint" />
            <mxPoint x="420" y="-800" as="targetPoint" />
          </mxGeometry>
        </mxCell>
        <mxCell id="9_J29xfHkVQ5TLsSPcRU-49" value="" style="endArrow=none;html=1;rounded=0;" edge="1" parent="1">
          <mxGeometry width="50" height="50" relative="1" as="geometry">
            <mxPoint x="250" y="-800" as="sourcePoint" />
            <mxPoint x="250" y="-570" as="targetPoint" />
          </mxGeometry>
        </mxCell>
        <mxCell id="9_J29xfHkVQ5TLsSPcRU-51" value="" style="endArrow=none;html=1;rounded=0;" edge="1" parent="1">
          <mxGeometry width="50" height="50" relative="1" as="geometry">
            <mxPoint x="180" y="-880" as="sourcePoint" />
            <mxPoint x="180" y="-1020" as="targetPoint" />
          </mxGeometry>
        </mxCell>
        <mxCell id="9_J29xfHkVQ5TLsSPcRU-52" value="" style="endArrow=none;html=1;rounded=0;" edge="1" parent="1">
          <mxGeometry width="50" height="50" relative="1" as="geometry">
            <mxPoint x="180" y="-1020" as="sourcePoint" />
            <mxPoint y="-1020" as="targetPoint" />
          </mxGeometry>
        </mxCell>
        <mxCell id="9_J29xfHkVQ5TLsSPcRU-53" value="" style="endArrow=none;html=1;rounded=0;" edge="1" parent="1">
          <mxGeometry width="50" height="50" relative="1" as="geometry">
            <mxPoint x="200" y="-880" as="sourcePoint" />
            <mxPoint x="180" y="-880" as="targetPoint" />
          </mxGeometry>
        </mxCell>
        <mxCell id="9_J29xfHkVQ5TLsSPcRU-54" value="" style="endArrow=none;html=1;rounded=0;" edge="1" parent="1">
          <mxGeometry width="50" height="50" relative="1" as="geometry">
            <mxPoint x="180" y="-800" as="sourcePoint" />
            <mxPoint x="180" y="-880" as="targetPoint" />
          </mxGeometry>
        </mxCell>
        <mxCell id="9_J29xfHkVQ5TLsSPcRU-55" value="" style="endArrow=none;html=1;rounded=0;" edge="1" parent="1">
          <mxGeometry width="50" height="50" relative="1" as="geometry">
            <mxPoint x="120" y="-800" as="sourcePoint" />
            <mxPoint x="120" y="-1020" as="targetPoint" />
          </mxGeometry>
        </mxCell>
        <mxCell id="9_J29xfHkVQ5TLsSPcRU-56" value="" style="endArrow=none;html=1;rounded=0;" edge="1" parent="1">
          <mxGeometry width="50" height="50" relative="1" as="geometry">
            <mxPoint x="130" y="-830" as="sourcePoint" />
            <mxPoint x="180" y="-880" as="targetPoint" />
          </mxGeometry>
        </mxCell>
        <mxCell id="9_J29xfHkVQ5TLsSPcRU-57" value="" style="endArrow=none;html=1;rounded=0;" edge="1" parent="1">
          <mxGeometry width="50" height="50" relative="1" as="geometry">
            <mxPoint x="80" y="-790" as="sourcePoint" />
            <mxPoint x="80" y="-920" as="targetPoint" />
          </mxGeometry>
        </mxCell>
      </root>
    </mxGraphModel>
  </diagram>
</mxfile>
